<svg id="Layer_1" enable-background="new 0 0 128 128" height="512" viewBox="0 0 128 128" width="512" xmlns="http://www.w3.org/2000/svg"><g><g><path d="m93.929 74.871 3.546 10.439c.117.344.411.597.768.662.081.015.588.1 1.443.1 2.842 0 9.522-.943 17.13-8.551 9.897-9.897 8.516-18.224 8.451-18.574-.064-.357-.318-.651-.662-.768l-10.439-3.546c-3.097-1.052-8.436-5.07-13.429-9.48l.98-.98c.944-.944 1.465-2.2 1.465-3.535 0-1.336-.521-2.591-1.465-3.536l-2.703-2.702c-.944-.944-2.2-1.464-3.536-1.464s-2.591.52-3.535 1.464l-.982.982c-.118-.142-.254-.296-.364-.432-.503-.622-1.25-1.003-2.05-1.046-.206-.012-.409-.001-.607.03-.593.094-1.136.374-1.565.803l-12.342 12.343c-.572.572-.877 1.363-.834 2.17.042.801.424 1.548 1.047 2.051.137.111.291.246.433.365l-9.552 9.552-14.124-14.123.073-.25c.479-1.629.031-3.388-1.17-4.591l-18.596-18.596c-.824-.824-2.166-.824-2.99 0l-1.372 1.372c-1.472 1.472-1.822 3.705-.871 5.557l.124.241c.42.818.266 1.804-.385 2.454l-8.941 8.942c-.65.649-1.638.803-2.454.384l-.24-.123c-1.854-.952-4.085-.601-5.557.871l-1.372 1.371c-.399.399-.619.931-.619 1.496s.22 1.096.619 1.495l15.529 15.53c.879.878 2.05 1.359 3.275 1.359.17 0 .342-.009.514-.028l2.749-.302.485 5.993c.024.299.182.571.429.742.247.17.558.222.845.138l2.817-.812.41 2.9c.041.287.204.542.447.699.242.158.544.201.82.122l2.813-.813.41 2.899c.041.287.204.542.447.7s.541.202.821.121l2.809-.813.409 2.897c.041.287.203.542.446.7.244.158.546.203.821.121l2.707-.782-18.615 18.614c-1.949 1.949-1.949 5.122 0 7.071l2.703 2.703c.975.975 2.255 1.462 3.535 1.462 1.281 0 2.562-.487 3.536-1.462l18.949-18.95c.208.084.433.118.647.056l2.807-.814.408 2.896c.04.287.203.542.447.7.243.158.547.201.821.121l2.806-.813.405 2.892c.04.287.203.543.446.701.244.158.541.203.822.121l2.809-.813.408 2.896c.04.287.203.542.447.7.243.158.541.202.821.121l2.809-.813.407 2.896c.04.287.203.543.447.7.242.157.542.202.821.121l2.809-.814.408 2.896c.04.287.203.542.447.7.243.158.541.202.821.121l2.808-.813.406 2.894c.04.287.203.542.446.7.243.157.541.202.822.121l2.809-.813.407 2.895c.04.287.203.543.447.7.163.106.353.161.543.161.094 0 .188-.013.278-.04l3.915-1.135c.162-.047.31-.134.429-.253l8.134-8.134c.391-.391.391-1.023 0-1.414l-26.97-26.976 9.55-9.55c4.41 4.994 8.427 10.333 9.479 13.43zm-56.614-32.373-11.089 11.088c-.327.327-.897.328-1.227 0l-2.454-2.454c-.899-.899-.899-2.362 0-3.261l9.054-9.053c.898-.899 2.363-.899 3.262 0l2.454 2.454c.338.337.338.888 0 1.226z" fill="#e6e7e8"/></g><g><g><g fill="#d4fbff"><path d="m53.624 82.853.108.769 3.915-1.135.569 4.038 3.915-1.135.564 4.035 3.917-1.134.569 4.038 3.916-1.134.569 4.038 3.916-1.135.568 4.038 3.916-1.135.568 4.037 3.916-1.134.568 4.038 3.915-1.136 8.134-8.133-27.681-27.682z"/><path d="m30.724 65.057.571 4.04 3.919-1.133.57 4.039 3.916-1.134.571 4.039 3.919-1.133.221 1.57 16.714-16.714-15.248-15.249-2.607 8.861c-.93 3.162-3.669 5.455-6.945 5.815l-10.092 1.109.568 7.019z"/></g><g><path d="m22.966 26.129.124.241c.617 1.201.388 2.663-.567 3.618l-8.941 8.941c-.955.955-2.417 1.184-3.618.567l-.241-.124c-1.458-.749-3.234-.471-4.393.689l-1.372 1.372c-.435.435-.435 1.141 0 1.576l15.529 15.529c.781.781 1.874 1.165 2.972 1.044l13.865-1.524c3.276-.36 6.015-2.653 6.945-5.815l2.848-9.681c.376-1.278.024-2.66-.918-3.602l-18.596-18.595c-.435-.435-1.141-.435-1.576 0l-1.372 1.372c-1.159 1.159-1.437 2.934-.689 4.392zm-5.127 17.035 9.054-9.054c1.291-1.291 3.384-1.291 4.675 0l2.454 2.454c.729.729.729 1.911 0 2.64l-11.089 11.089c-.729.729-1.911.729-2.64 0l-2.454-2.454c-1.291-1.291-1.291-3.384 0-4.675z" fill="#0089ef"/></g><circle cx="33.985" cy="48.813" fill="#fa759e" r="2.558"/></g><g><g fill="#0089ef"><path d="m95.278 41.2 1.732-1.732c1.562-1.562 1.562-4.095 0-5.657l-2.703-2.703c-1.562-1.562-4.095-1.562-5.657 0l-1.752 1.752c2.13 2.437 5.153 5.442 8.38 8.34z"/><path d="m72.155 47.603-46.808 46.807c-1.562 1.562-1.562 4.095 0 5.657l2.703 2.703c1.562 1.562 4.095 1.562 5.657 0l46.787-46.787c-2.898-3.227-5.902-6.25-8.339-8.38z"/></g><g fill="#fff"><path d="m93.066 39.169c.72.678 1.46 1.356 2.212 2.031l1.732-1.732c1.562-1.562 1.562-4.095 0-5.657l-2.121-2.121c1.562 1.562 1.562 4.095 0 5.657z"/><path d="m78.464 53.771-46.878 46.878c-1.562 1.562-4.095 1.562-5.657 0l2.121 2.121c1.562 1.562 4.095 1.562 5.657 0l46.787-46.787c-.674-.752-1.352-1.492-2.03-2.212z"/></g><g><path d="m83.082 31.444c.774-.774 2.048-.717 2.736.134 5.031 6.229 18.137 18.002 24.027 20.003l10.439 3.546s1.466 8.047-8.174 17.687-17.687 8.174-17.687 8.174l-3.546-10.439c-2.001-5.89-13.774-18.996-20.003-24.027-.851-.687-.908-1.962-.134-2.736z" fill="#d4fbff"/><g><path d="m85.817 31.578c2.608 3.228 7.384 7.944 12.201 12.018l-15.126 15.128c-4.075-4.817-8.79-9.593-12.018-12.201-.851-.687-.908-1.962-.134-2.736l12.343-12.343c.773-.773 2.047-.717 2.734.134z" fill="#6dc9f7"/></g></g><g fill="#3a2c60"><path d="m77.194 74.7c-.391.391-.391 1.023 0 1.414l5.25 5.25c.195.195.451.293.707.293s.512-.098.707-.293c.391-.391.391-1.023 0-1.414l-5.25-5.25c-.39-.39-1.023-.39-1.414 0z"/><path d="m35.568 37.884c0-.766-.298-1.486-.84-2.027l-2.454-2.454c-.813-.813-1.895-1.261-3.045-1.261-1.149 0-2.23.448-3.044 1.261l-9.054 9.053c-.813.813-1.261 1.895-1.261 3.044 0 1.15.447 2.232 1.261 3.045l2.454 2.455c.559.558 1.293.837 2.027.837s1.47-.278 2.028-.837l11.088-11.088c.542-.541.84-1.262.84-2.028zm-2.254.614-11.088 11.088c-.338.339-.889.338-1.227 0l-2.454-2.454c-.899-.899-.899-2.362 0-3.261l9.054-9.053c.898-.899 2.362-.898 3.261 0l2.454 2.455c.164.164.254.381.254.612s-.09.449-.254.613z"/><path d="m36.501 46.297c-1.387-1.388-3.645-1.388-5.031 0-1.388 1.387-1.388 3.645 0 5.032.693.694 1.604 1.041 2.516 1.041s1.822-.347 2.516-1.041c1.386-1.387 1.386-3.644-.001-5.032zm-1.414 3.618c-.607.607-1.596.607-2.203 0s-.607-1.596 0-2.204c.304-.304.703-.456 1.102-.456s.798.152 1.102.456c.606.608.606 1.597-.001 2.204z"/><path d="m93.474 81.31c.117.344.411.597.769.662.08.015.587.1 1.442.1 2.842 0 9.523-.943 17.131-8.551 9.896-9.897 8.515-18.224 8.45-18.574-.064-.357-.318-.651-.662-.768l-10.438-3.546c-3.097-1.052-8.437-5.069-13.43-9.479l.981-.981c.944-.944 1.465-2.2 1.465-3.535 0-1.336-.521-2.591-1.465-3.536l-2.704-2.702c-.944-.944-2.199-1.464-3.535-1.464s-2.591.52-3.535 1.464l-.987.987c-.123-.148-.246-.295-.361-.437-.503-.623-1.251-1.003-2.051-1.046-.808-.047-1.599.261-2.17.833l-12.342 12.343c-.572.572-.876 1.363-.833 2.17.043.8.424 1.548 1.047 2.05.142.114.289.238.437.361l-9.557 9.557-14.123-14.123.074-.25c.479-1.629.031-3.388-1.17-4.591l-18.597-18.597c-.799-.798-2.193-.797-2.99 0l-1.372 1.372c-1.472 1.472-1.822 3.705-.871 5.557l.124.241c.42.817.265 1.804-.385 2.454l-8.941 8.941c-.65.651-1.639.804-2.454.385l-.24-.124c-1.854-.95-4.085-.6-5.558.871l-1.371 1.371c-.399.399-.619.931-.619 1.496s.22 1.096.619 1.495l15.529 15.53c.879.878 2.05 1.359 3.274 1.359.17 0 .342-.01.514-.028l2.749-.302.485 5.993c.024.299.182.571.429.742s.558.223.845.138l2.818-.812.41 2.9c.041.287.204.542.447.699.242.158.543.202.82.122l2.813-.813.409 2.898c.041.287.204.542.447.7.242.158.542.203.821.121l2.81-.813.409 2.897c.041.287.203.542.446.7.244.158.545.202.821.121l2.707-.782-18.615 18.617c-.944.944-1.465 2.2-1.465 3.536 0 1.335.521 2.591 1.465 3.535l2.703 2.703c.975.975 2.255 1.462 3.535 1.462 1.281 0 2.562-.487 3.536-1.462l18.949-18.949c.207.084.432.119.647.055l2.808-.814.407 2.896c.04.288.203.543.447.7.244.159.546.201.821.121l2.807-.813.404 2.892c.04.287.203.543.446.701.244.157.541.202.822.121l2.81-.813.407 2.896c.04.287.203.543.447.7.243.158.542.203.821.121l2.81-.813.407 2.896c.04.287.203.543.447.7.242.158.542.202.821.121l2.809-.813.407 2.896c.04.287.203.543.447.7.243.158.542.203.821.121l2.808-.813.407 2.895c.04.287.203.542.446.7s.542.202.822.121l2.809-.813.407 2.895c.04.287.203.543.447.7.163.106.353.161.543.161.094 0 .188-.013.278-.04l3.915-1.135c.162-.047.31-.134.429-.253l8.134-8.134c.391-.391.391-1.023 0-1.414l-11.346-11.352c-.391-.391-1.023-.391-1.414 0s-.391 1.023 0 1.414l10.642 10.642-7.245 7.245-2.56.742-.407-2.895c-.04-.287-.203-.542-.446-.7-.243-.157-.542-.203-.822-.121l-2.809.813-.407-2.895c-.04-.287-.203-.542-.446-.7-.243-.157-.542-.201-.822-.121l-2.809.813-.407-2.896c-.04-.287-.203-.543-.447-.7-.242-.158-.54-.201-.821-.121l-2.809.813-.407-2.896c-.04-.287-.203-.542-.446-.7-.244-.157-.542-.201-.822-.121l-2.81.813-.407-2.896c-.04-.287-.203-.542-.446-.7-.243-.157-.541-.201-.822-.121l-2.809.813-.404-2.893c-.04-.287-.203-.543-.446-.701-.245-.158-.546-.202-.822-.121l-2.808.814-.407-2.896c-.04-.288-.203-.543-.447-.7-.242-.158-.546-.201-.821-.121l-1.414.41 13.531-13.531 4.865 4.865c.391.391 1.023.391 1.414 0s.391-1.023 0-1.414l-4.868-4.862 9.55-9.55c4.41 4.993 8.426 10.332 9.479 13.43zm17.928-9.202c-7.682 7.682-14.312 8.031-16.242 7.945l-.487-1.435c3.335-.505 8.833-2.325 14.874-8.365 6.042-6.042 7.861-11.539 8.365-14.874l1.435.487c.085 1.927-.265 8.561-7.945 16.242zm4.581-17.386c-.376 2.985-1.953 8.218-7.85 14.116-5.897 5.897-11.13 7.473-14.116 7.849l-2.194-6.46c-.943-2.775-3.97-7.087-7.584-11.437l13.846-13.846c4.35 3.614 8.663 6.641 11.438 7.584zm-26.626-22.907c.566-.566 1.319-.878 2.121-.878s1.555.312 2.121.878l2.703 2.703c.566.567.879 1.32.879 2.122s-.313 1.554-.879 2.121l-1.057 1.057c-2.635-2.401-5.092-4.839-6.972-6.919zm-17.911 12.679 12.343-12.343c.174-.174.373-.265.65-.25.237.013.451.121.6.306 2.505 3.101 6.932 7.5 11.514 11.441l-13.61 13.61c-3.941-4.582-8.341-9.009-11.441-11.513-.185-.149-.293-.362-.306-.601-.013-.245.076-.475.25-.65zm-49.096 14.094c-.798.09-1.586-.188-2.155-.757l-15.529-15.529v-.162l1.371-1.371c.535-.535 1.242-.814 1.96-.814.432 0 .866.101 1.27.308l.24.124c1.594.818 3.517.516 4.782-.75l8.941-8.941c1.267-1.267 1.567-3.188.75-4.781l-.124-.241c-.553-1.076-.35-2.374.506-3.229l1.372-1.373c.038-.037.122-.039.162 0l18.597 18.596c.684.685.938 1.686.666 2.613l-2.849 9.681c-.818 2.783-3.211 4.786-6.095 5.103zm22.385 14.348c-.243-.158-.543-.202-.821-.121l-2.813.813-.409-2.898c-.041-.287-.204-.542-.447-.7-.242-.157-.541-.201-.821-.121l-2.81.813-.409-2.897c-.041-.287-.203-.542-.446-.7-.244-.157-.544-.2-.821-.122l-2.813.813-.41-2.899c-.041-.287-.203-.542-.446-.699s-.542-.202-.82-.122l-2.749.792-.391-4.832 9.127-1.003c3.688-.406 6.748-2.968 7.794-6.527l2.132-7.245 13.351 13.351-14.659 14.658c-.079-.14-.181-.265-.319-.354zm-11.734 29.127c-1.169 1.168-3.072 1.17-4.243 0l-2.703-2.703c-.566-.567-.879-1.32-.879-2.121 0-.802.313-1.555.879-2.122l46.14-46.14c2.079 1.88 4.517 4.338 6.918 6.973z"/></g></g></g></g></svg>